<?xml version="1.0" encoding="utf-8"?>
<!-- Generator: Adobe Illustrator 16.0.0, SVG Export Plug-In . SVG Version: 6.00 Build 0)  -->
<!DOCTYPE svg PUBLIC "-//W3C//DTD SVG 1.1//EN" "http://www.w3.org/Graphics/SVG/1.1/DTD/svg11.dtd">
<svg version="1.1" id="Layer_1" xmlns="http://www.w3.org/2000/svg" xmlns:xlink="http://www.w3.org/1999/xlink" x="0px" y="0px"
	 width="480px" height="480px" viewBox="0 0 480 480" enable-background="new 0 0 480 480" xml:space="preserve">
<g>
	<path fill-rule="evenodd" clip-rule="evenodd" d="M148.932,278.388c10.293-1.104,20.206,3.512,25.783,9.48
		c1.913,2.046,6.036,7.853,7.207,12.893c5.257,22.69-12.249,39.192-30.333,39.053c-13.979-0.112-27.3-11.016-29.955-23.897
		c-2.854-13.854,4.219-26.943,12.512-32.601C137.857,280.786,142.669,279.058,148.932,278.388z"/>
	<path d="M196.295,149.453c1.79-2.435,3.633-4.785,5.522-7.053l-7.038-15.394c-6.868-15.037-18.69-25.75-31.292-29.991
		c-3.725-1.401-7.618-2.052-11.557-2.014c-3.943-0.038-7.838,0.613-11.563,2.014c-12.601,4.241-24.418,14.954-31.288,29.991
		L20.681,320.425c-11.471,25.107-4.816,52.74,14.863,61.729c19.679,9,44.932-4.057,56.402-29.161l59.985-131.252l13.821,30.252
		C163.307,212.841,176.581,176.292,196.295,149.453z"/>
	<path d="M460.488,201.105c-5.467-23.7-24.785-51.047-33.76-60.703c-26.136-28.11-72.593-49.814-120.837-44.635
		c-29.347,3.155-51.891,11.292-69.297,23.211c-11.045,7.568-21.635,17.969-30.82,30.474c-23.13,31.487-37.396,76.337-27.817,123.073
		c0.71,3.459,1.599,6.91,2.627,10.309c3.235,10.677,7.995,20.985,14.022,30.672c18.192,29.28,47.851,52.901,81.461,64.228
		c13.62,4.583,27.866,7.147,42.27,7.258c3.521,0.025,7.03-0.081,10.521-0.315c39.918-43.831,6.624-73.234-0.183-78.506
		c-3.133,0.445-6.305,0.654-9.477,0.633c-30.189-0.236-58.951-23.884-64.684-51.819c-6.16-30.085,9.119-58.477,27.018-70.741
		c8.015-5.493,18.408-9.244,31.94-10.697c22.217-2.385,43.62,7.613,55.664,20.569c4.137,4.446,13.043,17.049,15.562,27.967
		c9.479,41.1-15.291,72.818-46.443,82.007c6.261,5.849,36.025,37.312,1.93,79.343C416.479,372.007,483.014,298.75,460.488,201.105z"
		/>
</g>
</svg>
